# xmcd
#
# Track frame offsets:
#	150
#	17210
#	36300
#	53222
#
# Disc length: 962 seconds
#
# Revision: 1
# Processed by: cddbd v1.5PL3 Copyright (c) Steve Scherf et al.
# Submitted via: CDex 1.50Beta5
#
DISCID=2f03c004
DTITLE=青酢 - WHITE LINE
DYEAR=2002
DGENRE=Anime
TTITLE0=WHITE LINE
TTITLE1=Happy×2☆Day!!
TTITLE2=WHITE LINE(Original Karaoke)
TTITLE3=Happy×2☆Day!!(Original Karaoke)
EXTD=
EXTT0=
EXTT1=
EXTT2=
EXTT3=
PLAYORDER=
